<?xml version="1.0" encoding="UTF-8"?>
<!-- Generator: Adobe Illustrator 25.4.1, SVG Export Plug-In . SVG Version: 6.00 Build 0)  -->
<svg xmlns="http://www.w3.org/2000/svg" xmlns:xlink="http://www.w3.org/1999/xlink" version="1.1" id="Capa_1" x="0px" y="0px" viewBox="0 0 512 512" style="enable-background:new 0 0 512 512;" xml:space="preserve" width="512" height="512">
<g>
	
		<linearGradient id="SVGID_1_" gradientUnits="userSpaceOnUse" x1="486.3305" y1="1901.5995" x2="166.3711" y2="2085.3376" gradientTransform="matrix(1 0 0 -1 0 2434)">
		<stop offset="0" style="stop-color:#0052CC"/>
		<stop offset="0.9182" style="stop-color:#2380FB"/>
		<stop offset="1" style="stop-color:#2684FF"/>
	</linearGradient>
	<path style="fill:url(#SVGID_1_);" d="M18.618,385.212c-5.412,8.512-11.598,18.57-16.238,26.308   c-4.639,7.738-2.319,17.796,5.413,22.438l105.932,64.992c7.732,4.642,17.784,2.321,22.424-5.417   c3.866-6.963,9.278-16.247,15.464-26.306c41.753-68.861,84.281-61.124,160.056-24.759l105.16,49.519   c8.505,3.87,17.783,0,21.649-7.738l50.261-113.738c3.866-7.735,0-17.794-7.733-21.664c-22.423-10.059-66.498-30.948-105.158-50.291   C232.8,229.696,111.405,234.338,18.618,385.212z"/>
	
		<linearGradient id="SVGID_00000169529198857735388780000005977807117098839219_" gradientUnits="userSpaceOnUse" x1="25.5798" y1="2454.4502" x2="345.5444" y2="2270.7107" gradientTransform="matrix(1 0 0 -1 0 2434)">
		<stop offset="0" style="stop-color:#0052CC"/>
		<stop offset="0.9182" style="stop-color:#2380FB"/>
		<stop offset="1" style="stop-color:#2684FF"/>
	</linearGradient>
	<path style="fill:url(#SVGID_00000169529198857735388780000005977807117098839219_);" d="M493.381,126.788   c5.414-8.511,11.599-18.569,16.239-26.307c4.64-7.737,2.319-17.796-5.412-22.438L398.275,13.05   c-7.733-4.642-17.785-2.321-22.423,5.416c-3.866,6.964-9.28,16.248-15.464,26.307c-41.755,68.861-84.281,61.124-160.059,24.759   L95.171,20.014c-8.506-3.869-17.784,0-21.65,7.737l-50.26,113.736c-3.866,7.738,0,17.796,7.732,21.666   c22.424,10.059,66.497,30.948,105.159,50.291C279.198,281.533,400.594,277.663,493.381,126.788z"/>
</g>















</svg>
